<?xml version="1.0" encoding="UTF-8"?>
<svg width="584.87" height="567.63" version="1.1" viewBox="0 0 154.75 150.18" xmlns="http://www.w3.org/2000/svg" xmlns:cc="http://creativecommons.org/ns#" xmlns:dc="http://purl.org/dc/elements/1.1/" xmlns:rdf="http://www.w3.org/1999/02/22-rdf-syntax-ns#">
 <metadata>
  <rdf:RDF>
   <cc:Work rdf:about="">
    <dc:format>image/svg+xml</dc:format>
    <dc:type rdf:resource="http://purl.org/dc/dcmitype/StillImage"/>
   </cc:Work>
  </rdf:RDF>
 </metadata>
 <g transform="matrix(1.3008 0 0 1.3008 -491.42 -30.553)" fill="#00c178" stroke-linecap="square">
  <g transform="translate(-.68619 .014373)" stroke-width=".88348">
   <path d="m437.84 23.471h4e-3c4.4946 0 8.1129 3.6184 8.1129 8.1129v13.586c0 4.4945-3.6184 8.1129-8.1129 8.1129h-4e-3c-4.4946 0-8.1129-3.6184-8.1129-8.1129v-13.586c0-4.4945 3.6184-8.1129 8.1129-8.1129z"/>
   <path transform="rotate(60)" d="m303.2-398.07h4e-3c4.4945 0 8.1129 3.6184 8.1129 8.1129v13.586c0 4.4946-3.6184 8.1129-8.1129 8.1129h-4e-3c-4.4946 0-8.1129-3.6184-8.1129-8.1129v-13.586c0-4.4945 3.6184-8.1129 8.1129-8.1129z"/>
   <path transform="matrix(-.5 .86603 .86603 .5 0 0)" d="m-134.71 360.51h4e-3c4.4946 0 8.1129 3.6184 8.1129 8.1129v13.586c0 4.4946-3.6184 8.1129-8.1129 8.1129h-4e-3c-4.4945 0-8.1129-3.6184-8.1129-8.1129v-13.586c0-4.4946 3.6184-8.1129 8.1129-8.1129z"/>
  </g>
  <path d="m437.04 70.907c-0.0911 0.0025-0.18247 0.01554-0.27371 0.02067-0.0937 0.0049-0.18687 0.01321-0.28027 0.02141-0.195 0.01713-0.38939 0.03951-0.584 0.06936-0.1063 0.01627-0.21162 0.03572-0.3172 0.05554-0.177 0.03365-0.3532 0.07059-0.52912 0.115-0.12882 0.03229-0.25583 0.06948-0.38313 0.10729-0.14706 0.04404-0.29361 0.08881-0.4394 0.14048-0.15796 0.05567-0.3128 0.11866-0.46767 0.18294-0.11598 0.04845-0.23205 0.09554-0.34689 0.1491-0.17446 0.08099-0.34446 0.17123-0.51394 0.26336-0.071 0.03853-0.144 0.06912-0.21434 0.10973-0.0283 0.0164-0.0533 0.03621-0.0815 0.05285-0.15663 0.09285-0.30801 0.19443-0.4594 0.29684-0.11096 0.07463-0.22394 0.14705-0.33067 0.22573-0.097 0.07206-0.18928 0.15097-0.28373 0.22712-0.15644 0.12517-0.31194 0.2505-0.45835 0.38416-0.0257 0.02373-0.0498 0.04954-0.0752 0.07352-0.73459 0.6862-1.3362 1.4759-1.7993 2.3336l-28.534 49.423c-2.5438 4.406-1.0449 10.001 3.3611 12.545 4.406 2.5438 10.001 1.0449 12.545-3.3612l20.712-35.875 20.709 35.87c2.5438 4.406 8.1387 5.905 12.545 3.3612 4.406-2.5438 5.9053-8.1387 3.3615-12.545l-28.632-49.592c-0.16637-0.29247-0.34679-0.57712-0.54605-0.85149-0.15213-0.2095-0.31578-0.4115-0.48667-0.60887-0.0408-0.04759-0.0791-0.09774-0.12086-0.14427-0.11182-0.12385-0.23211-0.24098-0.35138-0.35931-0.11108-0.11145-0.22088-0.22409-0.33687-0.32893-0.0525-0.04697-0.10888-0.09041-0.16257-0.13634-0.19265-0.16614-0.38916-0.32591-0.59332-0.47424-5.2e-4 -3.54e-4 -1e-3 -6.73e-4 -2e-3 -0.0012-1e-3 -0.0012-3e-3 -0.0025-5e-3 -0.0037-0.51129-0.3708-1.0562-0.68269-1.6257-0.93814-1.3e-4 -6.2e-5 -1.7e-4 -3.55e-4 -3.6e-4 -3.55e-4 -1.6e-4 -9.8e-5 -5.2e-4 -1.72e-4 -6.5e-4 -3.55e-4 -0.27077-0.12136-0.5464-0.22929-0.827-0.32375-0.0303-0.0098-0.0609-0.01908-0.0915-0.029-0.24875-0.08086-0.49982-0.15189-0.75453-0.21124-0.0529-0.01248-0.10576-0.02312-0.15877-0.0345-0.23146-0.04966-0.464-0.09126-0.69894-0.12287-0.0711-0.0098-0.14211-0.01725-0.21331-0.0252-0.21812-0.02422-0.43655-0.0416-0.65648-0.05004-0.0832-0.0037-0.16606-0.0037-0.24921-0.0049-0.11646-0.0012-0.23229-0.01101-0.34896-0.0074z" stroke-width=".8836"/>
 </g>
</svg>
